<svg id="Layer_1" fill="#ffffff" data-name="Layer 1" xmlns="http://www.w3.org/2000/svg" viewBox="0 0 480 346.08638"><title>tt-logo-icon</title><path d="M488.357,338.81616,374.08972,149.32347c-.11-.18351-.24386-.3476-.36375-.52294-.15456-.22909-.29967-.46142-.47094-.67854a11.31619,11.31619,0,0,0-1.09262-1.18525c-.23831-.22755-.49247-.43274-.75181-.63975-.23189-.18487-.47255-.35567-.718-.52179-.21438-.14608-.40242-.32431-.628-.45623L286.10675,96.26413,255.8035,78.5219a11.4279,11.4279,0,0,0-5.77285-1.56509l-.03185.002-.03185-.002a11.4279,11.4279,0,0,0-5.77285,1.56509L213.89083,96.26413,129.933,145.319c-.22554.13192-.41356.31016-.62794.45623-.24543.166-.48608.33693-.718.52179-.25869.207-.51325.41226-.75178.63975a11.31923,11.31923,0,0,0-1.09259,1.18525c-.17136.21712-.31639.44945-.471.67854-.11956.17574-.25342.33952-.36375.52294L11.64253,338.81616a11.42737,11.42737,0,0,0,3.88669,15.6864q.06143.03705.12333.0733L129.91979,421.478a11.43116,11.43116,0,0,0,11.53609.00641l108.54387-63.4201L358.544,421.48419a11.43116,11.43116,0,0,0,11.53609-.00641L484.3473,354.57561a11.42741,11.42741,0,0,0,4.08338-15.63635q-.03626-.06189-.07333-.12335ZM151.50327,159.26973l73.989-43.31943,24.50736-14.31885L274.507,115.9503l73.98822,43.3194L249.99974,322.60078ZM135.69912,398.38338,37.185,340.70463l98.49326-163.33448L234.236,340.81142Zm228.60143,0-98.53718-57.572,98.55778-163.44136L462.81439,340.7045Z" transform="translate(-10 -76.95681)"/><polygon points="125.695 143.002 186.267 243.451 125.695 278.841 65.148 243.394 125.695 143.002"/><polygon points="354.271 143.002 414.851 243.451 354.271 278.841 293.732 243.394 354.271 143.002"/><polygon points="240.016 203.08 179.444 102.631 240.016 67.241 300.555 102.68 240.016 203.08"/></svg>
